<svg width="28" height="28" viewBox="0 0 28 28" fill="none" xmlns="http://www.w3.org/2000/svg">
<path d="M19.425 10.6525C19.545 10.5405 19.6419 10.406 19.71 10.2567C19.7781 10.1073 19.8161 9.94595 19.8218 9.78188C19.8276 9.61781 19.8009 9.45421 19.7435 9.30043C19.686 9.14666 19.5988 9.0057 19.4868 8.88563C19.3749 8.76555 19.2404 8.6687 19.091 8.6006C18.9416 8.53251 18.7803 8.4945 18.6162 8.48876C18.4521 8.48301 18.2885 8.50964 18.1348 8.56712C17.981 8.62459 17.84 8.7118 17.72 8.82375L14.0625 12.2338L10.6525 8.575C10.4243 8.34131 10.1137 8.2062 9.78719 8.19858C9.46068 8.19097 9.14414 8.31145 8.90533 8.53426C8.66652 8.75706 8.5244 9.06448 8.50937 9.39075C8.49435 9.71701 8.60762 10.0362 8.82495 10.28L12.235 13.9375L8.5762 17.3475C8.45188 17.4583 8.35096 17.5929 8.27937 17.7432C8.20777 17.8936 8.16694 18.0567 8.15928 18.2231C8.15162 18.3895 8.17728 18.5557 8.23476 18.712C8.29223 18.8683 8.38036 19.0115 8.49397 19.1333C8.60758 19.2551 8.74438 19.3529 8.89633 19.4211C9.04828 19.4893 9.21232 19.5264 9.37882 19.5303C9.54531 19.5341 9.7109 19.5047 9.86587 19.4437C10.0208 19.3827 10.162 19.2913 10.2812 19.175L13.9387 15.7663L17.3487 19.4238C17.4588 19.5504 17.5933 19.6535 17.7441 19.7271C17.8949 19.8006 18.059 19.843 18.2266 19.8518C18.3941 19.8606 18.5617 19.8355 18.7194 19.7781C18.8771 19.7208 19.0216 19.6322 19.1443 19.5178C19.2671 19.4034 19.3655 19.2654 19.4338 19.1122C19.502 18.9589 19.5388 18.7934 19.5417 18.6257C19.5447 18.4579 19.5139 18.2913 19.4511 18.1357C19.3883 17.9801 19.2948 17.8387 19.1762 17.72L15.7675 14.0625L19.425 10.6525Z" fill="#424242"/>
<path fill-rule="evenodd" clip-rule="evenodd" d="M0.25 14C0.25 6.40625 6.40625 0.25 14 0.25C21.5938 0.25 27.75 6.40625 27.75 14C27.75 21.5938 21.5938 27.75 14 27.75C6.40625 27.75 0.25 21.5938 0.25 14ZM14 25.25C12.5226 25.25 11.0597 24.959 9.69481 24.3936C8.3299 23.8283 7.08971 22.9996 6.04505 21.955C5.00039 20.9103 4.17172 19.6701 3.60636 18.3052C3.04099 16.9403 2.75 15.4774 2.75 14C2.75 12.5226 3.04099 11.0597 3.60636 9.69481C4.17172 8.3299 5.00039 7.08971 6.04505 6.04505C7.08971 5.00039 8.3299 4.17172 9.69481 3.60636C11.0597 3.04099 12.5226 2.75 14 2.75C16.9837 2.75 19.8452 3.93526 21.955 6.04505C24.0647 8.15483 25.25 11.0163 25.25 14C25.25 16.9837 24.0647 19.8452 21.955 21.955C19.8452 24.0647 16.9837 25.25 14 25.25Z" fill="#424242"/>
</svg>
