<svg width="16" height="15" viewBox="0 0 16 15" fill="none" xmlns="http://www.w3.org/2000/svg">
<path d="M14.9619 6.78367L1.50353 0.450341C1.36801 0.386572 1.21718 0.362555 1.06855 0.381078C0.919928 0.399602 0.779607 0.459905 0.663884 0.554987C0.548162 0.650068 0.461785 0.776026 0.414785 0.918235C0.367785 1.06044 0.362089 1.21307 0.398359 1.35838L1.35786 5.19717L7.49961 7.50013L1.35786 9.80309L0.398359 13.6419C0.361406 13.7873 0.366627 13.9402 0.41341 14.0828C0.460193 14.2254 0.546604 14.3517 0.662535 14.4469C0.778467 14.5422 0.919124 14.6024 1.06806 14.6207C1.21699 14.6389 1.36803 14.6144 1.50353 14.5499L14.9619 8.21659C15.0979 8.15266 15.2129 8.05133 15.2934 7.92446C15.374 7.79759 15.4167 7.65041 15.4167 7.50013C15.4167 7.34985 15.374 7.20267 15.2934 7.0758C15.2129 6.94893 15.0979 6.84761 14.9619 6.78367V6.78367Z" fill="white"/>
</svg>
