<svg width="22" height="22" viewBox="0 0 22 22" fill="none" xmlns="http://www.w3.org/2000/svg">
<g clip-path="url(#clip0_51_32753)">
<path d="M11.1365 0C17.1113 0 21.9547 4.84346 21.9547 10.8182C21.9547 16.2178 17.9986 20.6934 12.8269 21.5049V13.9453H15.3477L15.8273 10.8182H12.8269V8.78892C12.8269 7.93341 13.2461 7.09943 14.59 7.09943H15.954V4.43714C15.954 4.43714 14.716 4.22585 13.5324 4.22585C11.0613 4.22585 9.4462 5.72349 9.4462 8.4348V10.8182H6.6994V13.9453H9.4462V21.5049C4.27439 20.6934 0.318359 16.2178 0.318359 10.8182C0.318359 4.84346 5.16182 0 11.1365 0Z" fill="white"/>
</g>
<defs>
<clipPath id="clip0_51_32753">
<rect width="21.6364" height="21.6364" fill="white" transform="translate(0.318359)"/>
</clipPath>
</defs>
</svg>
