<svg width="22" height="22" viewBox="0 0 22 22" fill="none" xmlns="http://www.w3.org/2000/svg">
<g clip-path="url(#clip0_51_32761)">
<path fill-rule="evenodd" clip-rule="evenodd" d="M10.8182 0C7.87969 0 7.51188 0.0135227 6.35839 0.0649091C5.20625 0.117648 4.41923 0.300205 3.73227 0.567955C3.01035 0.839634 2.35641 1.26559 1.8161 1.8161C1.26559 2.35641 0.839634 3.01035 0.567955 3.73227C0.300205 4.41923 0.117648 5.20625 0.0649091 6.35839C0.0121705 7.51188 0 7.87969 0 10.8182C0 13.7567 0.0135227 14.1245 0.0649091 15.278C0.117648 16.4301 0.300205 17.2171 0.567955 17.9041C0.843818 18.6154 1.21434 19.2185 1.8161 19.8203C2.41786 20.422 3.01962 20.7925 3.73227 21.0684C4.41923 21.3362 5.20625 21.5187 6.35839 21.5715C7.51188 21.6242 7.87969 21.6364 10.8182 21.6364C13.7567 21.6364 14.1245 21.6228 15.278 21.5715C16.4301 21.5187 17.2171 21.3362 17.9041 21.0684C18.626 20.7967 19.28 20.3708 19.8203 19.8203C20.3708 19.28 20.7967 18.626 21.0684 17.9041C21.3362 17.2171 21.5187 16.4301 21.5715 15.278C21.6228 14.1245 21.6364 13.7567 21.6364 10.8182C21.6364 7.87969 21.6228 7.51188 21.5715 6.35839C21.5174 5.20625 21.3362 4.41923 21.0684 3.73227C20.7967 3.01035 20.3708 2.35641 19.8203 1.8161C19.28 1.26559 18.626 0.839634 17.9041 0.567955C17.2171 0.300205 16.4301 0.117648 15.278 0.0649091C14.1245 0.0135227 13.7567 0 10.8182 0ZM10.8182 1.94998C13.7066 1.94998 14.0501 1.9608 15.1901 2.01218C16.2449 2.06086 16.8169 2.23666 17.1982 2.38541C17.704 2.58014 18.0637 2.81543 18.4423 3.19407C18.8209 3.5727 19.0549 3.93241 19.251 4.43816C19.3997 4.8195 19.5755 5.39151 19.6242 6.44628C19.6756 7.5876 19.6864 7.92973 19.6864 10.8182C19.6864 13.7066 19.6756 14.0501 19.6242 15.1901C19.5755 16.2449 19.3997 16.8169 19.251 17.1982C19.0549 17.704 18.8209 18.0637 18.4423 18.4423C18.0938 18.8021 17.6685 19.0785 17.1982 19.251C16.8169 19.3997 16.2449 19.5755 15.1901 19.6242C14.0488 19.6756 13.7066 19.6864 10.8182 19.6864C7.92973 19.6864 7.58625 19.6756 6.44628 19.6242C5.39151 19.5755 4.8195 19.3997 4.43816 19.251C3.96808 19.0781 3.54289 18.8017 3.19407 18.4423C2.83465 18.0935 2.55828 17.6683 2.38541 17.1982C2.23666 16.8169 2.06086 16.2449 2.01218 15.1901C1.9608 14.0488 1.94998 13.7066 1.94998 10.8182C1.94998 7.92973 1.9608 7.58625 2.01218 6.44628C2.06086 5.39151 2.23666 4.8195 2.38541 4.43816C2.55786 3.96787 2.83429 3.54259 3.19407 3.19407C3.5727 2.81543 3.93241 2.58014 4.43816 2.38541C4.8195 2.23666 5.39151 2.06086 6.44628 2.01218C7.5876 1.9608 7.92973 1.94998 10.8182 1.94998Z" fill="white"/>
<path fill-rule="evenodd" clip-rule="evenodd" d="M10.818 14.4245C9.86147 14.4245 8.94414 14.0445 8.26779 13.3682C7.59143 12.6918 7.21146 11.7745 7.21146 10.818C7.21146 9.86149 7.59143 8.94416 8.26779 8.2678C8.94414 7.59145 9.86147 7.21148 10.818 7.21148C11.7745 7.21148 12.6918 7.59145 13.3682 8.2678C14.0445 8.94416 14.4245 9.86149 14.4245 10.818C14.4245 11.7745 14.0445 12.6918 13.3682 13.3682C12.6918 14.0445 11.7745 14.4245 10.818 14.4245ZM10.818 5.26286C10.0811 5.25136 9.34926 5.38657 8.66513 5.66061C7.98099 5.93466 7.3582 6.34207 6.83303 6.85911C6.30785 7.37616 5.89078 7.99251 5.6061 8.67229C5.32141 9.35207 5.1748 10.0817 5.1748 10.8187C5.1748 11.5557 5.32141 12.2853 5.6061 12.9651C5.89078 13.6448 6.30785 14.2612 6.83303 14.7782C7.3582 15.2953 7.98099 15.7027 8.66513 15.9767C9.34926 16.2508 10.0811 16.386 10.818 16.3745C12.2765 16.3517 13.6675 15.7564 14.6909 14.7169C15.7142 13.6775 16.2878 12.2773 16.2878 10.8187C16.2878 9.36001 15.7142 7.95985 14.6909 6.9204C13.6675 5.88096 12.2765 5.28561 10.818 5.26286ZM17.8904 5.04379C17.8904 5.38809 17.7536 5.71828 17.5101 5.96174C17.2667 6.2052 16.9365 6.34197 16.5922 6.34197C16.2479 6.34197 15.9177 6.2052 15.6742 5.96174C15.4308 5.71828 15.294 5.38809 15.294 5.04379C15.294 4.69949 15.4308 4.36929 15.6742 4.12583C15.9177 3.88238 16.2479 3.74561 16.5922 3.74561C16.9365 3.74561 17.2667 3.88238 17.5101 4.12583C17.7536 4.36929 17.8904 4.69949 17.8904 5.04379Z" fill="white"/>
</g>
<defs>
<clipPath id="clip0_51_32761">
<rect width="21.6364" height="21.6364" fill="white"/>
</clipPath>
</defs>
</svg>
