<svg width="23" height="20" viewBox="0 0 23 20" fill="none" xmlns="http://www.w3.org/2000/svg">
<g clip-path="url(#clip0_51_32759)">
<path fill-rule="evenodd" clip-rule="evenodd" d="M22.9999 2.7404C22.1619 3.11894 21.2717 3.36771 20.3596 3.47824C21.323 2.88871 22.0409 1.96812 22.3804 0.887176C21.4919 1.42499 20.5085 1.81445 19.4619 2.02375C19.0345 1.55766 18.5156 1.18565 17.938 0.931203C17.3604 0.676757 16.7365 0.545396 16.1058 0.54541C13.567 0.54541 11.508 2.64237 11.508 5.22681C11.508 5.59375 11.5475 5.95141 11.6266 6.2945C7.80655 6.09845 4.41882 4.23463 2.15155 1.40248C1.74216 2.11871 1.52716 2.93044 1.52805 3.75642C1.52805 5.38047 2.34005 6.81377 3.57387 7.65362C2.84267 7.62976 2.12809 7.42841 1.49114 7.06679V7.1264C1.49114 9.39424 3.07559 11.2859 5.17941 11.7177C4.50272 11.9048 3.79216 11.932 3.10327 11.7972C3.68723 13.657 5.38505 15.0109 7.39791 15.0493C6.44814 15.8103 5.35706 16.3736 4.18834 16.7063C3.01962 17.0391 1.79666 17.1346 0.59082 16.9873C2.68681 18.3611 5.13542 19.092 7.63782 19.0909C16.0953 19.0909 20.7195 11.9575 20.7195 5.76993C20.7195 5.56725 20.7142 5.36458 20.7063 5.16455C21.608 4.49984 22.3847 3.67896 22.9999 2.7404Z" fill="white"/>
</g>
<defs>
<clipPath id="clip0_51_32759">
<rect width="22.4091" height="18.5455" fill="white" transform="translate(0.59082 0.54541)"/>
</clipPath>
</defs>
</svg>
