<svg width="25" height="15" viewBox="0 0 25 15" fill="none" xmlns="http://www.w3.org/2000/svg">
<g clip-path="url(#clip0_51_32757)">
<path fill-rule="evenodd" clip-rule="evenodd" d="M13.6062 14.7147C13.6062 14.7147 14.0386 14.6654 14.2593 14.4239C14.4622 14.2013 14.4559 13.7841 14.4559 13.7841C14.4559 13.7841 14.4282 11.8279 15.3196 11.5409C16.1983 11.2564 17.328 13.43 18.5232 14.2658C19.4284 14.8981 20.1155 14.759 20.1155 14.759L23.3153 14.7147C23.3153 14.7147 24.9884 14.6098 24.1953 13.2707C24.1298 13.1607 23.7326 12.2794 21.8163 10.4699C19.8104 8.57321 20.079 8.88048 22.4958 5.60299C23.9671 3.60766 24.5547 2.38872 24.3706 1.8665C24.1941 1.36957 23.1124 1.49981 23.1124 1.49981L19.5103 1.52383C19.5103 1.52383 19.2431 1.4859 19.0451 1.60728C18.8522 1.72488 18.7274 1.99927 18.7274 1.99927C18.7274 1.99927 18.1588 3.54444 17.3986 4.85948C15.7949 7.63119 15.1544 7.77786 14.8909 7.6059C14.2807 7.20506 14.4332 5.99497 14.4332 5.13514C14.4332 2.44815 14.8342 1.3291 13.6541 1.03828C13.2633 0.942177 12.9733 0.878954 11.9735 0.867574C10.6875 0.854929 9.59947 0.872632 8.98421 1.17863C8.5732 1.38221 8.25801 1.83742 8.45091 1.86397C8.68919 1.89558 9.22754 2.01191 9.51373 2.40769C9.88314 2.91853 9.87053 4.06666 9.87053 4.06666C9.87053 4.06666 10.0823 7.22782 9.37505 7.62107C8.88966 7.8904 8.22271 7.34036 6.793 4.82661C6.30714 3.95006 5.8776 3.04328 5.50702 2.11181C5.50702 2.11181 5.40112 1.84627 5.21074 1.70338C5.04369 1.5904 4.85532 1.51294 4.65727 1.47578L1.23555 1.50233C1.23555 1.50233 0.721157 1.51498 0.532042 1.74258C0.36436 1.9449 0.519434 2.36217 0.519434 2.36217C0.519434 2.36217 3.19856 8.74391 6.23196 11.9594C9.01447 14.9082 12.1739 14.7147 12.1739 14.7147H13.6062Z" fill="white"/>
</g>
<defs>
<clipPath id="clip0_51_32757">
<rect width="23.9545" height="13.9091" fill="white" transform="translate(0.454102 0.86377)"/>
</clipPath>
</defs>
</svg>
