<svg width="26" height="19" viewBox="0 0 26 19" fill="none" xmlns="http://www.w3.org/2000/svg">
<g clip-path="url(#clip0_51_32755)">
<path fill-rule="evenodd" clip-rule="evenodd" d="M4.1169 0.560342C7.57734 0.318359 12.7673 0.318359 12.7673 0.318359H12.7783C12.7783 0.318359 17.9683 0.318359 21.4287 0.560342L21.5881 0.576747C22.1184 0.625964 23.058 0.714828 23.907 1.57475C24.6488 2.3007 24.8892 3.95083 24.8892 3.95083C24.8892 3.95083 25.1365 5.88806 25.1365 7.82392V9.63947C25.1365 11.5767 24.8892 13.5139 24.8892 13.5139C24.8892 13.5139 24.6474 15.1641 23.907 15.89C23.0594 16.7513 22.1184 16.8388 21.5881 16.888L21.4287 16.9044C17.9683 17.1464 12.7728 17.1546 12.7728 17.1546C12.7728 17.1546 6.34373 17.0972 4.36554 16.914C4.27213 16.8962 4.15811 16.8839 4.02898 16.8689C3.40118 16.795 2.41896 16.6816 1.63867 15.89C0.896856 15.1654 0.656452 13.5153 0.656452 13.5153C0.656452 13.5153 0.40918 11.5781 0.40918 9.64221V7.82529C0.40918 5.88806 0.656452 3.95083 0.656452 3.95083C0.656452 3.95083 0.89823 2.3007 1.63867 1.57475C2.48764 0.714828 3.42728 0.625964 3.95754 0.576747L4.11827 0.560342H4.1169ZM16.8995 8.48971L10.219 5.117V11.8433L16.8995 8.49245V8.48971Z" fill="white"/>
</g>
<defs>
<clipPath id="clip0_51_32755">
<rect width="24.7273" height="17.7727" fill="white" transform="translate(0.40918 0.318359)"/>
</clipPath>
</defs>
</svg>
